G04 #@! TF.GenerationSoftware,KiCad,Pcbnew,5.1.5*
G04 #@! TF.CreationDate,2020-04-29T20:22:20+02:00*
G04 #@! TF.ProjectId,fancontr,66616e63-6f6e-4747-922e-6b696361645f,rev?*
G04 #@! TF.SameCoordinates,Original*
G04 #@! TF.FileFunction,Legend,Bot*
G04 #@! TF.FilePolarity,Positive*
%FSLAX46Y46*%
G04 Gerber Fmt 4.6, Leading zero omitted, Abs format (unit mm)*
G04 Created by KiCad (PCBNEW 5.1.5) date 2020-04-29 20:22:20*
%MOMM*%
%LPD*%
G04 APERTURE LIST*
%ADD10C,0.200000*%
%ADD11C,0.150000*%
G04 APERTURE END LIST*
D10*
X82442857Y-98909428D02*
X82442857Y-98409428D01*
X83228571Y-98409428D02*
X81728571Y-98409428D01*
X81728571Y-99123714D01*
X82800000Y-99623714D02*
X82800000Y-100338000D01*
X83228571Y-99480857D02*
X81728571Y-99980857D01*
X83228571Y-100480857D01*
X83228571Y-100980857D02*
X81728571Y-100980857D01*
X83228571Y-101838000D01*
X81728571Y-101838000D01*
X81871428Y-102480857D02*
X81800000Y-102552285D01*
X81728571Y-102695142D01*
X81728571Y-103052285D01*
X81800000Y-103195142D01*
X81871428Y-103266571D01*
X82014285Y-103338000D01*
X82157142Y-103338000D01*
X82371428Y-103266571D01*
X83228571Y-102409428D01*
X83228571Y-103338000D01*
X107931142Y-118804571D02*
X107359714Y-118804571D01*
X107716857Y-119804571D02*
X107716857Y-118518857D01*
X107645428Y-118376000D01*
X107502571Y-118304571D01*
X107359714Y-118304571D01*
X106216857Y-119804571D02*
X106216857Y-119018857D01*
X106288285Y-118876000D01*
X106431142Y-118804571D01*
X106716857Y-118804571D01*
X106859714Y-118876000D01*
X106216857Y-119733142D02*
X106359714Y-119804571D01*
X106716857Y-119804571D01*
X106859714Y-119733142D01*
X106931142Y-119590285D01*
X106931142Y-119447428D01*
X106859714Y-119304571D01*
X106716857Y-119233142D01*
X106359714Y-119233142D01*
X106216857Y-119161714D01*
X105502571Y-118804571D02*
X105502571Y-119804571D01*
X105502571Y-118947428D02*
X105431142Y-118876000D01*
X105288285Y-118804571D01*
X105074000Y-118804571D01*
X104931142Y-118876000D01*
X104859714Y-119018857D01*
X104859714Y-119804571D01*
X103502571Y-119733142D02*
X103645428Y-119804571D01*
X103931142Y-119804571D01*
X104074000Y-119733142D01*
X104145428Y-119661714D01*
X104216857Y-119518857D01*
X104216857Y-119090285D01*
X104145428Y-118947428D01*
X104074000Y-118876000D01*
X103931142Y-118804571D01*
X103645428Y-118804571D01*
X103502571Y-118876000D01*
X102645428Y-119804571D02*
X102788285Y-119733142D01*
X102859714Y-119661714D01*
X102931142Y-119518857D01*
X102931142Y-119090285D01*
X102859714Y-118947428D01*
X102788285Y-118876000D01*
X102645428Y-118804571D01*
X102431142Y-118804571D01*
X102288285Y-118876000D01*
X102216857Y-118947428D01*
X102145428Y-119090285D01*
X102145428Y-119518857D01*
X102216857Y-119661714D01*
X102288285Y-119733142D01*
X102431142Y-119804571D01*
X102645428Y-119804571D01*
X101502571Y-118804571D02*
X101502571Y-119804571D01*
X101502571Y-118947428D02*
X101431142Y-118876000D01*
X101288285Y-118804571D01*
X101074000Y-118804571D01*
X100931142Y-118876000D01*
X100859714Y-119018857D01*
X100859714Y-119804571D01*
X100359714Y-118804571D02*
X99788285Y-118804571D01*
X100145428Y-118304571D02*
X100145428Y-119590285D01*
X100074000Y-119733142D01*
X99931142Y-119804571D01*
X99788285Y-119804571D01*
X99288285Y-119804571D02*
X99288285Y-118804571D01*
X99288285Y-119090285D02*
X99216857Y-118947428D01*
X99145428Y-118876000D01*
X99002571Y-118804571D01*
X98859714Y-118804571D01*
X121011142Y-90526857D02*
X121011142Y-91026857D01*
X120225428Y-91026857D02*
X121725428Y-91026857D01*
X121725428Y-90312571D01*
X120654000Y-89812571D02*
X120654000Y-89098285D01*
X120225428Y-89955428D02*
X121725428Y-89455428D01*
X120225428Y-88955428D01*
X120225428Y-88455428D02*
X121725428Y-88455428D01*
X120225428Y-87598285D01*
X121725428Y-87598285D01*
X120225428Y-86098285D02*
X120225428Y-86955428D01*
X120225428Y-86526857D02*
X121725428Y-86526857D01*
X121511142Y-86669714D01*
X121368285Y-86812571D01*
X121296857Y-86955428D01*
X120225428Y-84669714D02*
X120225428Y-85526857D01*
X120225428Y-85098285D02*
X121725428Y-85098285D01*
X121511142Y-85241142D01*
X121368285Y-85384000D01*
X121296857Y-85526857D01*
D11*
X96726285Y-119165714D02*
X96488190Y-119832380D01*
X96250095Y-119165714D01*
X95916761Y-118927619D02*
X95869142Y-118880000D01*
X95773904Y-118832380D01*
X95535809Y-118832380D01*
X95440571Y-118880000D01*
X95392952Y-118927619D01*
X95345333Y-119022857D01*
X95345333Y-119118095D01*
X95392952Y-119260952D01*
X95964380Y-119832380D01*
X95345333Y-119832380D01*
X107058880Y-120848476D02*
X107154119Y-120800857D01*
X107344595Y-120800857D01*
X107439833Y-120848476D01*
X107535071Y-120943714D01*
X107582690Y-121038952D01*
X107582690Y-121229428D01*
X107535071Y-121324666D01*
X107439833Y-121419904D01*
X107344595Y-121467523D01*
X107154119Y-121467523D01*
X107058880Y-121419904D01*
X107249357Y-120467523D02*
X107487452Y-120515142D01*
X107725547Y-120658000D01*
X107868404Y-120896095D01*
X107916023Y-121134190D01*
X107868404Y-121372285D01*
X107725547Y-121610380D01*
X107487452Y-121753238D01*
X107249357Y-121800857D01*
X107011261Y-121753238D01*
X106773166Y-121610380D01*
X106630309Y-121372285D01*
X106582690Y-121134190D01*
X106630309Y-120896095D01*
X106773166Y-120658000D01*
X107011261Y-120515142D01*
X107249357Y-120467523D01*
X105392214Y-121610380D02*
X105392214Y-120610380D01*
X105154119Y-120610380D01*
X105011261Y-120658000D01*
X104916023Y-120753238D01*
X104868404Y-120848476D01*
X104820785Y-121038952D01*
X104820785Y-121181809D01*
X104868404Y-121372285D01*
X104916023Y-121467523D01*
X105011261Y-121562761D01*
X105154119Y-121610380D01*
X105392214Y-121610380D01*
X103963642Y-121610380D02*
X103963642Y-121086571D01*
X104011261Y-120991333D01*
X104106500Y-120943714D01*
X104296976Y-120943714D01*
X104392214Y-120991333D01*
X103963642Y-121562761D02*
X104058880Y-121610380D01*
X104296976Y-121610380D01*
X104392214Y-121562761D01*
X104439833Y-121467523D01*
X104439833Y-121372285D01*
X104392214Y-121277047D01*
X104296976Y-121229428D01*
X104058880Y-121229428D01*
X103963642Y-121181809D01*
X103582690Y-120943714D02*
X103344595Y-121610380D01*
X103106500Y-120943714D01*
X102725547Y-121610380D02*
X102725547Y-120943714D01*
X102725547Y-120610380D02*
X102773166Y-120658000D01*
X102725547Y-120705619D01*
X102677928Y-120658000D01*
X102725547Y-120610380D01*
X102725547Y-120705619D01*
X101820785Y-121610380D02*
X101820785Y-120610380D01*
X101820785Y-121562761D02*
X101916023Y-121610380D01*
X102106500Y-121610380D01*
X102201738Y-121562761D01*
X102249357Y-121515142D01*
X102296976Y-121419904D01*
X102296976Y-121134190D01*
X102249357Y-121038952D01*
X102201738Y-120991333D01*
X102106500Y-120943714D01*
X101916023Y-120943714D01*
X101820785Y-120991333D01*
X100582690Y-121610380D02*
X100582690Y-120610380D01*
X100011261Y-121610380D02*
X100439833Y-121038952D01*
X100011261Y-120610380D02*
X100582690Y-121181809D01*
X99439833Y-121610380D02*
X99535071Y-121562761D01*
X99582690Y-121515142D01*
X99630309Y-121419904D01*
X99630309Y-121134190D01*
X99582690Y-121038952D01*
X99535071Y-120991333D01*
X99439833Y-120943714D01*
X99296976Y-120943714D01*
X99201738Y-120991333D01*
X99154119Y-121038952D01*
X99106500Y-121134190D01*
X99106500Y-121419904D01*
X99154119Y-121515142D01*
X99201738Y-121562761D01*
X99296976Y-121610380D01*
X99439833Y-121610380D01*
X98677928Y-120943714D02*
X98677928Y-121610380D01*
X98677928Y-121038952D02*
X98630309Y-120991333D01*
X98535071Y-120943714D01*
X98392214Y-120943714D01*
X98296976Y-120991333D01*
X98249357Y-121086571D01*
X98249357Y-121610380D01*
X98677928Y-120562761D02*
X98487452Y-120705619D01*
X98296976Y-120562761D01*
X97344595Y-121610380D02*
X97344595Y-121086571D01*
X97392214Y-120991333D01*
X97487452Y-120943714D01*
X97677928Y-120943714D01*
X97773166Y-120991333D01*
X97344595Y-121562761D02*
X97439833Y-121610380D01*
X97677928Y-121610380D01*
X97773166Y-121562761D01*
X97820785Y-121467523D01*
X97820785Y-121372285D01*
X97773166Y-121277047D01*
X97677928Y-121229428D01*
X97439833Y-121229428D01*
X97344595Y-121181809D01*
X96868404Y-121610380D02*
X96868404Y-120943714D01*
X96868404Y-121134190D02*
X96820785Y-121038952D01*
X96773166Y-120991333D01*
X96677928Y-120943714D01*
X96582690Y-120943714D01*
X96963642Y-120562761D02*
X96773166Y-120705619D01*
X96582690Y-120562761D01*
X96249357Y-121610380D02*
X96249357Y-120943714D01*
X96154119Y-120562761D02*
X96296976Y-120705619D01*
X95773166Y-121610380D02*
X95773166Y-120610380D01*
X95677928Y-121229428D02*
X95392214Y-121610380D01*
X95392214Y-120943714D02*
X95773166Y-121324666D01*
D10*
X121011142Y-101702857D02*
X121011142Y-102202857D01*
X120225428Y-102202857D02*
X121725428Y-102202857D01*
X121725428Y-101488571D01*
X120654000Y-100988571D02*
X120654000Y-100274285D01*
X120225428Y-101131428D02*
X121725428Y-100631428D01*
X120225428Y-100131428D01*
X120225428Y-99631428D02*
X121725428Y-99631428D01*
X120225428Y-98774285D01*
X121725428Y-98774285D01*
X120225428Y-97274285D02*
X120225428Y-98131428D01*
X120225428Y-97702857D02*
X121725428Y-97702857D01*
X121511142Y-97845714D01*
X121368285Y-97988571D01*
X121296857Y-98131428D01*
X121725428Y-96345714D02*
X121725428Y-96202857D01*
X121654000Y-96060000D01*
X121582571Y-95988571D01*
X121439714Y-95917142D01*
X121154000Y-95845714D01*
X120796857Y-95845714D01*
X120511142Y-95917142D01*
X120368285Y-95988571D01*
X120296857Y-96060000D01*
X120225428Y-96202857D01*
X120225428Y-96345714D01*
X120296857Y-96488571D01*
X120368285Y-96560000D01*
X120511142Y-96631428D01*
X120796857Y-96702857D01*
X121154000Y-96702857D01*
X121439714Y-96631428D01*
X121582571Y-96560000D01*
X121654000Y-96488571D01*
X121725428Y-96345714D01*
X121011142Y-112164571D02*
X121011142Y-112664571D01*
X120225428Y-112664571D02*
X121725428Y-112664571D01*
X121725428Y-111950285D01*
X120654000Y-111450285D02*
X120654000Y-110736000D01*
X120225428Y-111593142D02*
X121725428Y-111093142D01*
X120225428Y-110593142D01*
X120225428Y-110093142D02*
X121725428Y-110093142D01*
X120225428Y-109236000D01*
X121725428Y-109236000D01*
X120225428Y-108450285D02*
X120225428Y-108164571D01*
X120296857Y-108021714D01*
X120368285Y-107950285D01*
X120582571Y-107807428D01*
X120868285Y-107736000D01*
X121439714Y-107736000D01*
X121582571Y-107807428D01*
X121654000Y-107878857D01*
X121725428Y-108021714D01*
X121725428Y-108307428D01*
X121654000Y-108450285D01*
X121582571Y-108521714D01*
X121439714Y-108593142D01*
X121082571Y-108593142D01*
X120939714Y-108521714D01*
X120868285Y-108450285D01*
X120796857Y-108307428D01*
X120796857Y-108021714D01*
X120868285Y-107878857D01*
X120939714Y-107807428D01*
X121082571Y-107736000D01*
X121011142Y-123340571D02*
X121011142Y-123840571D01*
X120225428Y-123840571D02*
X121725428Y-123840571D01*
X121725428Y-123126285D01*
X120654000Y-122626285D02*
X120654000Y-121912000D01*
X120225428Y-122769142D02*
X121725428Y-122269142D01*
X120225428Y-121769142D01*
X120225428Y-121269142D02*
X121725428Y-121269142D01*
X120225428Y-120412000D01*
X121725428Y-120412000D01*
X121082571Y-119483428D02*
X121154000Y-119626285D01*
X121225428Y-119697714D01*
X121368285Y-119769142D01*
X121439714Y-119769142D01*
X121582571Y-119697714D01*
X121654000Y-119626285D01*
X121725428Y-119483428D01*
X121725428Y-119197714D01*
X121654000Y-119054857D01*
X121582571Y-118983428D01*
X121439714Y-118912000D01*
X121368285Y-118912000D01*
X121225428Y-118983428D01*
X121154000Y-119054857D01*
X121082571Y-119197714D01*
X121082571Y-119483428D01*
X121011142Y-119626285D01*
X120939714Y-119697714D01*
X120796857Y-119769142D01*
X120511142Y-119769142D01*
X120368285Y-119697714D01*
X120296857Y-119626285D01*
X120225428Y-119483428D01*
X120225428Y-119197714D01*
X120296857Y-119054857D01*
X120368285Y-118983428D01*
X120511142Y-118912000D01*
X120796857Y-118912000D01*
X120939714Y-118983428D01*
X121011142Y-119054857D01*
X121082571Y-119197714D01*
X119276571Y-127146857D02*
X119776571Y-127146857D01*
X119776571Y-127932571D02*
X119776571Y-126432571D01*
X119062285Y-126432571D01*
X118562285Y-127504000D02*
X117848000Y-127504000D01*
X118705142Y-127932571D02*
X118205142Y-126432571D01*
X117705142Y-127932571D01*
X117205142Y-127932571D02*
X117205142Y-126432571D01*
X116348000Y-127932571D01*
X116348000Y-126432571D01*
X115776571Y-126432571D02*
X114776571Y-126432571D01*
X115419428Y-127932571D01*
X108354571Y-127146857D02*
X108854571Y-127146857D01*
X108854571Y-127932571D02*
X108854571Y-126432571D01*
X108140285Y-126432571D01*
X107640285Y-127504000D02*
X106926000Y-127504000D01*
X107783142Y-127932571D02*
X107283142Y-126432571D01*
X106783142Y-127932571D01*
X106283142Y-127932571D02*
X106283142Y-126432571D01*
X105426000Y-127932571D01*
X105426000Y-126432571D01*
X104068857Y-126432571D02*
X104354571Y-126432571D01*
X104497428Y-126504000D01*
X104568857Y-126575428D01*
X104711714Y-126789714D01*
X104783142Y-127075428D01*
X104783142Y-127646857D01*
X104711714Y-127789714D01*
X104640285Y-127861142D01*
X104497428Y-127932571D01*
X104211714Y-127932571D01*
X104068857Y-127861142D01*
X103997428Y-127789714D01*
X103926000Y-127646857D01*
X103926000Y-127289714D01*
X103997428Y-127146857D01*
X104068857Y-127075428D01*
X104211714Y-127004000D01*
X104497428Y-127004000D01*
X104640285Y-127075428D01*
X104711714Y-127146857D01*
X104783142Y-127289714D01*
X89304571Y-126892857D02*
X89804571Y-126892857D01*
X89804571Y-127678571D02*
X89804571Y-126178571D01*
X89090285Y-126178571D01*
X88590285Y-127250000D02*
X87876000Y-127250000D01*
X88733142Y-127678571D02*
X88233142Y-126178571D01*
X87733142Y-127678571D01*
X87233142Y-127678571D02*
X87233142Y-126178571D01*
X86376000Y-127678571D01*
X86376000Y-126178571D01*
X84947428Y-126178571D02*
X85661714Y-126178571D01*
X85733142Y-126892857D01*
X85661714Y-126821428D01*
X85518857Y-126750000D01*
X85161714Y-126750000D01*
X85018857Y-126821428D01*
X84947428Y-126892857D01*
X84876000Y-127035714D01*
X84876000Y-127392857D01*
X84947428Y-127535714D01*
X85018857Y-127607142D01*
X85161714Y-127678571D01*
X85518857Y-127678571D01*
X85661714Y-127607142D01*
X85733142Y-127535714D01*
X82442857Y-121261428D02*
X82442857Y-120761428D01*
X83228571Y-120761428D02*
X81728571Y-120761428D01*
X81728571Y-121475714D01*
X82800000Y-121975714D02*
X82800000Y-122690000D01*
X83228571Y-121832857D02*
X81728571Y-122332857D01*
X83228571Y-122832857D01*
X83228571Y-123332857D02*
X81728571Y-123332857D01*
X83228571Y-124190000D01*
X81728571Y-124190000D01*
X82228571Y-125547142D02*
X83228571Y-125547142D01*
X81657142Y-125190000D02*
X82728571Y-124832857D01*
X82728571Y-125761428D01*
X82442857Y-110085428D02*
X82442857Y-109585428D01*
X83228571Y-109585428D02*
X81728571Y-109585428D01*
X81728571Y-110299714D01*
X82800000Y-110799714D02*
X82800000Y-111514000D01*
X83228571Y-110656857D02*
X81728571Y-111156857D01*
X83228571Y-111656857D01*
X83228571Y-112156857D02*
X81728571Y-112156857D01*
X83228571Y-113014000D01*
X81728571Y-113014000D01*
X81728571Y-113585428D02*
X81728571Y-114514000D01*
X82300000Y-114014000D01*
X82300000Y-114228285D01*
X82371428Y-114371142D01*
X82442857Y-114442571D01*
X82585714Y-114514000D01*
X82942857Y-114514000D01*
X83085714Y-114442571D01*
X83157142Y-114371142D01*
X83228571Y-114228285D01*
X83228571Y-113799714D01*
X83157142Y-113656857D01*
X83085714Y-113585428D01*
X82442857Y-87479428D02*
X82442857Y-86979428D01*
X83228571Y-86979428D02*
X81728571Y-86979428D01*
X81728571Y-87693714D01*
X82800000Y-88193714D02*
X82800000Y-88908000D01*
X83228571Y-88050857D02*
X81728571Y-88550857D01*
X83228571Y-89050857D01*
X83228571Y-89550857D02*
X81728571Y-89550857D01*
X83228571Y-90408000D01*
X81728571Y-90408000D01*
X83228571Y-91908000D02*
X83228571Y-91050857D01*
X83228571Y-91479428D02*
X81728571Y-91479428D01*
X81942857Y-91336571D01*
X82085714Y-91193714D01*
X82157142Y-91050857D01*
X106778571Y-85514571D02*
X106778571Y-84014571D01*
X106207142Y-84014571D01*
X106064285Y-84086000D01*
X105992857Y-84157428D01*
X105921428Y-84300285D01*
X105921428Y-84514571D01*
X105992857Y-84657428D01*
X106064285Y-84728857D01*
X106207142Y-84800285D01*
X106778571Y-84800285D01*
X104992857Y-84014571D02*
X104707142Y-84014571D01*
X104564285Y-84086000D01*
X104421428Y-84228857D01*
X104350000Y-84514571D01*
X104350000Y-85014571D01*
X104421428Y-85300285D01*
X104564285Y-85443142D01*
X104707142Y-85514571D01*
X104992857Y-85514571D01*
X105135714Y-85443142D01*
X105278571Y-85300285D01*
X105350000Y-85014571D01*
X105350000Y-84514571D01*
X105278571Y-84228857D01*
X105135714Y-84086000D01*
X104992857Y-84014571D01*
X103850000Y-84014571D02*
X103492857Y-85514571D01*
X103207142Y-84443142D01*
X102921428Y-85514571D01*
X102564285Y-84014571D01*
X101992857Y-84728857D02*
X101492857Y-84728857D01*
X101278571Y-85514571D02*
X101992857Y-85514571D01*
X101992857Y-84014571D01*
X101278571Y-84014571D01*
X99778571Y-85514571D02*
X100278571Y-84800285D01*
X100635714Y-85514571D02*
X100635714Y-84014571D01*
X100064285Y-84014571D01*
X99921428Y-84086000D01*
X99850000Y-84157428D01*
X99778571Y-84300285D01*
X99778571Y-84514571D01*
X99850000Y-84657428D01*
X99921428Y-84728857D01*
X100064285Y-84800285D01*
X100635714Y-84800285D01*
X99492857Y-85657428D02*
X98350000Y-85657428D01*
X97992857Y-85514571D02*
X97992857Y-84014571D01*
X97278571Y-85514571D02*
X97278571Y-84014571D01*
X96421428Y-85514571D01*
X96421428Y-84014571D01*
X85204857Y-80458571D02*
X85204857Y-81672857D01*
X85133428Y-81815714D01*
X85062000Y-81887142D01*
X84919142Y-81958571D01*
X84633428Y-81958571D01*
X84490571Y-81887142D01*
X84419142Y-81815714D01*
X84347714Y-81672857D01*
X84347714Y-80458571D01*
X83704857Y-81887142D02*
X83490571Y-81958571D01*
X83133428Y-81958571D01*
X82990571Y-81887142D01*
X82919142Y-81815714D01*
X82847714Y-81672857D01*
X82847714Y-81530000D01*
X82919142Y-81387142D01*
X82990571Y-81315714D01*
X83133428Y-81244285D01*
X83419142Y-81172857D01*
X83562000Y-81101428D01*
X83633428Y-81030000D01*
X83704857Y-80887142D01*
X83704857Y-80744285D01*
X83633428Y-80601428D01*
X83562000Y-80530000D01*
X83419142Y-80458571D01*
X83062000Y-80458571D01*
X82847714Y-80530000D01*
X81704857Y-81172857D02*
X81490571Y-81244285D01*
X81419142Y-81315714D01*
X81347714Y-81458571D01*
X81347714Y-81672857D01*
X81419142Y-81815714D01*
X81490571Y-81887142D01*
X81633428Y-81958571D01*
X82204857Y-81958571D01*
X82204857Y-80458571D01*
X81704857Y-80458571D01*
X81562000Y-80530000D01*
X81490571Y-80601428D01*
X81419142Y-80744285D01*
X81419142Y-80887142D01*
X81490571Y-81030000D01*
X81562000Y-81101428D01*
X81704857Y-81172857D01*
X82204857Y-81172857D01*
X123963428Y-81958571D02*
X123963428Y-80458571D01*
X123392000Y-80458571D01*
X123249142Y-80530000D01*
X123177714Y-80601428D01*
X123106285Y-80744285D01*
X123106285Y-80958571D01*
X123177714Y-81101428D01*
X123249142Y-81172857D01*
X123392000Y-81244285D01*
X123963428Y-81244285D01*
X122606285Y-80458571D02*
X122249142Y-81958571D01*
X121963428Y-80887142D01*
X121677714Y-81958571D01*
X121320571Y-80458571D01*
X120749142Y-81958571D02*
X120749142Y-80458571D01*
X120249142Y-81530000D01*
X119749142Y-80458571D01*
X119749142Y-81958571D01*
X119392000Y-82101428D02*
X118249142Y-82101428D01*
X117892000Y-81958571D02*
X117892000Y-80458571D01*
X117177714Y-81958571D02*
X117177714Y-80458571D01*
X116320571Y-81958571D01*
X116320571Y-80458571D01*
M02*
