M48
; DRILL file {KiCad 5.1.5} date Wed 29 Apr 2020 08:22:22 PM CEST
; FORMAT={-:-/ absolute / inch / decimal}
; #@! TF.CreationDate,2020-04-29T20:22:22+02:00
; #@! TF.GenerationSoftware,Kicad,Pcbnew,5.1.5
; #@! TF.FileFunction,Plated,1,2,PTH
FMAT,2
INCH
T1C0.0157
T2C0.0236
T3C0.0394
T4C0.0600
%
G90
G05
T1
X3.2812Y-3.66
X3.2812Y-4.1
X3.2812Y-4.54
X3.29Y-4.76
X3.34Y-3.23
X3.38Y-4.15
X3.5Y-4.39
X3.5513Y-4.7113
X3.6Y-4.33
X3.6494Y-4.1343
X3.6767Y-4.3467
X3.68Y-3.92
X3.688Y-4.1422
X3.69Y-4.44
X3.7Y-4.48
X3.72Y-3.62
X3.76Y-4.44
X3.7653Y-3.8207
X3.7875Y-4.5121
X3.8Y-3.71
X3.83Y-4.31
X3.8403Y-4.24
X3.8587Y-4.5468
X3.8629Y-3.98
X3.87Y-4.17
X3.89Y-4.9424
X3.8961Y-4.5344
X3.9021Y-4.5733
X3.906Y-4.1937
X3.91Y-4.32
X3.92Y-3.9981
X3.93Y-3.96
X3.96Y-3.76
X4.0Y-4.2
X4.03Y-4.17
X4.03Y-4.23
X4.08Y-3.88
X4.14Y-4.19
X4.14Y-4.2337
X4.1474Y-4.9926
X4.2127Y-4.3573
X4.27Y-4.2337
X4.31Y-4.23
X4.3402Y-3.6972
X4.3441Y-4.55
X4.38Y-3.96
X4.38Y-4.28
X4.38Y-4.45
X4.41Y-4.08
X4.45Y-4.45
X4.4626Y-4.6274
X4.4863Y-4.4283
X4.5502Y-4.5202
X4.5864Y-4.9936
X4.5909Y-3.7543
X4.63Y-3.7475
X4.64Y-3.4
X4.66Y-4.8125
X4.67Y-3.98
X4.69Y-4.57
X4.7574Y-3.5126
X4.7574Y-3.9526
X4.7574Y-4.3926
T2
X3.42Y-3.56
T3
X4.54Y-5.12
X4.64Y-5.12
X4.74Y-5.12
X4.1Y-5.12
X4.2Y-5.12
X4.3Y-5.12
X4.88Y-3.36
X4.88Y-3.46
X4.88Y-3.56
X3.13Y-3.36
X3.13Y-3.46
X3.13Y-3.56
X3.13Y-3.66
X4.88Y-4.24
X4.88Y-4.34
X4.88Y-4.44
X3.1297Y-3.8008
X3.1297Y-3.9008
X3.1297Y-4.0008
X3.1297Y-4.1008
X4.88Y-4.68
X4.88Y-4.78
X4.88Y-4.88
X4.23Y-3.81
X4.23Y-3.91
X4.23Y-4.01
X4.0Y-4.57
X4.1Y-4.57
X4.2Y-4.57
X3.13Y-4.24
X3.13Y-4.34
X3.13Y-4.44
X3.13Y-4.54
X3.13Y-4.68
X3.13Y-4.78
X3.13Y-4.88
X3.13Y-4.98
X3.27Y-5.11
X3.37Y-5.11
X3.47Y-5.11
X3.57Y-5.11
X4.88Y-3.8
X4.88Y-3.9
X4.88Y-4.0
X4.58Y-3.08
X4.68Y-3.08
X4.78Y-3.08
X4.88Y-3.08
X3.13Y-3.08
X3.23Y-3.08
X3.33Y-3.08
X3.43Y-3.08
T4
X3.7Y-3.51
X3.9Y-3.51
X4.1Y-3.51
X4.1Y-3.51
X4.3Y-3.51
T0
M30
